<?xml version="1.0" encoding="UTF-8"?>
<svg width="200px" height="200px" viewBox="0 0 200 200" version="1.1" xmlns="http://www.w3.org/2000/svg" xmlns:xlink="http://www.w3.org/1999/xlink">
    <!-- Generator: Sketch 54.1 (76490) - https://sketchapp.com -->
    <title>southern-nazarene</title>
    <desc>Created with Sketch.</desc>
    <g id="southern-nazarene" stroke="none" stroke-width="1" fill="none" fill-rule="evenodd">
        <g id="southern-nazarene_BGD">
            <g id="southern-nazarene" transform="translate(6.008034, 0.000000)">
                <path d="M57.7317449,98.2649235 C53.466951,91.7249282 45.6809714,89.9014671 41.5168804,88.7237559 C40.6475361,88.4779727 37.6122272,87.5972495 37.0882311,87.4259978 L59.3708686,87.4259978 L57.7317449,98.2649235 Z M160.254635,64.670569 L154.043488,106.644879 L154.012197,106.917403 C154.006507,106.986245 153.331172,113.975705 149.86176,113.801039 C147.966612,113.706026 148.125916,110.592203 148.405267,109.082229 L155.224044,64.6722758 L133.239533,64.6722758 L133.814734,60.8785665 L106.995917,60.8785665 L106.9834,60.9718731 L99.4124807,51.4875997 L122.085413,51.4875997 L44.2119616,0 L70.8811466,33.5676142 L51.6082155,33.5676142 L65.0551742,50.4122982 L65.0062451,50.3701964 L62.8118335,64.6717069 L42.4243439,64.6717069 C32.5924466,64.6722758 13.7484983,67.6563798 10.8070649,84.6518336 C9.71526407,90.9579935 10.8281158,96.4989256 14.1131905,101.122153 C20.1690156,109.642069 31.4858532,111.598094 31.9643339,111.677746 C31.9643339,111.677746 35.3785585,112.371856 35.0514165,113.233804 C34.898371,113.588824 33.8930494,113.617271 33.3286583,113.62865 L8.199032,113.62865 L0,136.039299 L30.9408062,136.039299 C31.2628277,136.034179 38.011056,136.034179 43.900181,134.250544 C46.9184216,133.336253 50.2074788,131.544084 53.1113619,128.819418 L51.4460669,139.831302 L78.580078,139.831302 L85.7220146,148.779062 L63.0496515,148.779062 L140.922534,200.267231 L114.253349,166.699617 L133.52628,166.699617 L120.195954,150.001151 L120.282434,150.064304 L124.279825,123.781431 C124.790735,124.789597 125.402917,125.789229 126.13344,126.760414 C130.512591,132.581266 137.796194,135.75938 147.780568,136.207137 C148.413232,136.235585 149.030535,136.249239 149.638735,136.249239 C164.414174,136.24867 172.231446,128.062724 176.21632,121.034576 C180.238744,113.939293 181.088176,106.743306 181.207653,105.510408 L187.431317,64.670569 L160.254635,64.670569 L160.254635,64.670569 Z" id="Fill-1" fill="#8F918F"></path>
                <polyline id="Fill-4" fill="#FFFFFE" points="103.95435 83.329042 105.106458 74.8279015 81.2609356 44.9538627 97.9457467 44.9373634 75.1880421 28.5796943 84.291124 39.4345504 69.2039037 39.4345504 103.95435 83.329042"></polyline>
                <polyline id="Fill-5" fill="#FFFFFE" points="82.0620068 118.051041 80.741491 126.330863 103.874129 155.313368 87.1893176 155.329299 109.947022 171.686968 100.84394 160.832112 115.930592 160.832112 82.0620068 118.051041"></polyline>
                <path d="M62.1484464,68.8062129 L59.703131,83.2886471 L35.224944,83.2886471 C35.224944,83.2886471 31.6724664,83.0599322 30.9146348,86.5640497 C30.2250763,89.7529731 32.8979687,90.4425315 38.0696571,92.0805173 C43.6936548,93.8613077 58.9663504,95.0043134 56.2559077,113.62865 C53.4254182,133.077953 32.1145348,131.839934 31.1268504,131.897966 L5.91927895,131.90138 L11.0909673,117.766001 L33.3286583,117.766001 C33.3286583,117.766001 38.9549318,117.946355 39.1893362,113.62865 C39.4709628,108.453548 32.6390999,107.595582 32.6390999,107.595582 C32.6390999,107.595582 11.6348764,104.12617 14.8835388,85.3573224 C17.9859828,67.4288028 42.2923492,68.8079197 42.2923492,68.8079197 L62.1484464,68.8062129" id="Fill-6" fill="#912235"></path>
                <polyline id="Fill-7" fill="#912235" points="68.3248874 55.7751512 56.2559077 135.693951 75.0463754 135.693951 80.5622741 100.35465 116.776609 145.713031 129.003186 65.0159172 110.558067 65.0159172 105.04103 101.733767 68.3248874 55.7751512"></polyline>
                <path d="M132.106199,68.8079197 L126.417342,108.629351 C126.417342,108.629351 121.073264,130.867611 147.966043,132.073769 C174.857685,133.280497 177.099319,105.009738 177.099319,105.009738 L182.615217,68.8079197 L163.825319,68.8079197 L158.136462,107.250234 C158.136462,107.250234 157.274513,117.93839 149.862329,117.93839 C142.449007,117.93839 144.345293,108.285141 144.345293,108.285141 L150.405669,68.8062129 L132.106199,68.8079197" id="Fill-8" fill="#912235"></path>
            </g>
        </g>
    </g>
</svg>